<svg width="31" height="30" viewBox="0 0 31 30" fill="none" xmlns="http://www.w3.org/2000/svg">
<path d="M30.0781 12.3386C30.0208 12.0311 29.854 11.7529 29.6067 11.5525C29.3595 11.3521 29.0475 11.2423 28.7252 11.2422H15.7749C15.5944 11.2422 15.4155 11.2766 15.2487 11.3436C15.0818 11.4106 14.9302 11.5088 14.8026 11.6326C14.6749 11.7564 14.5736 11.9035 14.5045 12.0652C14.4354 12.227 14.3999 12.4004 14.3999 12.5755V17.7331C14.3999 17.9082 14.4354 18.0816 14.5045 18.2434C14.5736 18.4052 14.6749 18.5522 14.8026 18.676C14.9302 18.7998 15.0818 18.898 15.2487 18.965C15.4155 19.032 15.5944 19.0665 15.7749 19.0664H21.2232C20.835 19.7018 20.3028 20.2433 19.667 20.6498C18.5049 21.3642 17.1505 21.7285 15.7749 21.6966C14.3483 21.6808 12.9632 21.2294 11.8163 20.4065C10.6694 19.5836 9.81914 18.4312 9.38635 17.1129L9.38595 17.1107C8.90433 15.7419 8.90433 14.2568 9.38595 12.888L9.38628 12.8858C9.81938 11.5678 10.6698 10.4157 11.8166 9.59307C12.9635 8.77045 14.3485 8.3192 15.7749 8.30341C16.5675 8.28577 17.3559 8.42012 18.0947 8.69877C18.8336 8.97741 19.5084 9.39484 20.0805 9.9271C20.3403 10.1678 20.6869 10.3005 21.0463 10.2966C21.4056 10.2927 21.7491 10.1526 22.0033 9.90627L25.947 6.08205C26.0777 5.95552 26.1807 5.80474 26.2499 5.63874C26.3191 5.47273 26.3531 5.2949 26.3499 5.11587C26.3466 4.93684 26.3062 4.76028 26.231 4.59675C26.1557 4.43322 26.0473 4.28607 25.9121 4.16409C23.1678 1.66902 19.5366 0.296833 15.7749 0.333352C12.9698 0.325304 10.2182 1.07737 7.83036 2.50474C5.4425 3.93211 3.51337 5.97801 2.26052 8.41173L2.2585 8.41409C1.19635 10.4564 0.64528 12.7127 0.649932 15C0.653277 17.2865 1.20394 19.541 2.25857 21.586L2.26059 21.5883C3.51344 24.022 5.44255 26.0679 7.8304 27.4953C10.2182 28.9227 12.9699 29.6747 15.7749 29.6667C19.4673 29.7573 23.0557 28.4756 25.8051 26.084L25.8061 26.0834L25.8072 26.0822L25.8075 26.0821L25.8076 26.0819C27.2978 24.6917 28.4718 23.0146 29.2541 21.1584C30.0364 19.3022 30.4097 17.3078 30.3501 15.3034C30.3507 14.3093 30.2596 13.317 30.0781 12.3386ZM15.7749 3.00002C18.3477 2.97574 20.8596 3.75808 22.9366 5.23049L20.9378 7.16802C19.4223 6.15076 17.618 5.61563 15.7749 5.63674C14.0922 5.64513 12.4422 6.08819 10.9948 6.92032C9.54733 7.75245 8.35469 8.94358 7.53963 10.3711L6.06947 9.26613L5.26509 8.66123C6.37165 6.92503 7.91882 5.49296 9.75881 4.50183C11.5988 3.51071 13.6701 2.99364 15.7749 3.00002V3.00002ZM4.05916 18.8711C3.1801 16.3608 3.1801 13.6393 4.05916 11.1289L6.50973 12.9714C6.19641 14.3063 6.19641 15.6924 6.50973 17.0274L4.05916 18.8711ZM15.7749 27C13.6701 27.0064 11.5987 26.4893 9.75873 25.4981C7.91873 24.5069 6.37154 23.0748 5.26498 21.3386L5.7853 20.9472L7.53963 19.6276C8.35433 21.0556 9.54685 22.2471 10.9944 23.0795C12.4419 23.9118 14.0921 24.355 15.7749 24.3633C17.3502 24.3813 18.9076 24.0383 20.3203 23.3622L22.6463 25.1134C20.6006 26.3915 18.208 27.0484 15.7749 27V27ZM24.748 23.319L24.4964 23.1297L22.6025 21.704C23.5956 20.6637 24.263 19.3709 24.5271 17.9766C24.564 17.7842 24.5567 17.5862 24.5058 17.3968C24.4549 17.2073 24.3616 17.0311 24.2325 16.8806C24.1035 16.73 23.9418 16.6089 23.759 16.5258C23.5762 16.4428 23.3768 16.3997 23.1749 16.3998H17.1499V13.9089H27.5296C27.5766 14.3698 27.6001 14.836 27.6001 15.3034C27.6805 18.2219 26.6672 21.0696 24.7479 23.319H24.748Z" fill="url(#paint0_linear_420_127)"/>
<defs>
<linearGradient id="paint0_linear_420_127" x1="15.5031" y1="0.332642" x2="15.5031" y2="29.6712" gradientUnits="userSpaceOnUse">
<stop stop-color="#BF71BB"/>
<stop offset="1" stop-color="#6CA6D7"/>
</linearGradient>
</defs>
</svg>
