<svg width="37" height="36" viewBox="0 0 37 36" fill="none" xmlns="http://www.w3.org/2000/svg">
<path d="M29.0295 14.16C28.8881 13.9564 28.6974 13.7898 28.4743 13.6747C28.2512 13.5596 28.0024 13.4996 27.7499 13.5H23.1249V10.5H26.5166C26.9255 10.5 27.3176 10.342 27.6067 10.0607C27.8958 9.77936 28.0583 9.39782 28.0583 9V3C28.0583 2.60218 27.8958 2.22064 27.6067 1.93934C27.3176 1.65804 26.9255 1.5 26.5166 1.5H21.5833C19.2118 1.5 16.9374 2.4166 15.2605 4.04817C13.5837 5.67974 12.6416 7.89262 12.6416 10.2V13.5H9.24992C8.84104 13.5 8.44891 13.658 8.1598 13.9393C7.87068 14.2206 7.70825 14.6022 7.70825 15V21C7.70825 21.3978 7.87068 21.7794 8.1598 22.0607C8.44891 22.342 8.84104 22.5 9.24992 22.5H12.6416V33C12.6416 33.3978 12.804 33.7794 13.0931 34.0607C13.3822 34.342 13.7744 34.5 14.1833 34.5H21.5833C21.9921 34.5 22.3843 34.342 22.6734 34.0607C22.9625 33.7794 23.1249 33.3978 23.1249 33V22.5H25.2833C25.592 22.5003 25.8938 22.4104 26.1494 22.2419C26.405 22.0734 26.6028 21.8341 26.717 21.555L29.1837 15.555C29.2768 15.3279 29.3114 15.082 29.2846 14.8389C29.2577 14.5957 29.1701 14.3627 29.0295 14.16V14.16ZM24.2349 19.5H21.5833C21.1744 19.5 20.7822 19.658 20.4931 19.9393C20.204 20.2206 20.0416 20.6022 20.0416 21V31.5H15.7249V21C15.7249 20.6022 15.5625 20.2206 15.2734 19.9393C14.9843 19.658 14.5921 19.5 14.1833 19.5H10.7916V16.5H14.1833C14.5921 16.5 14.9843 16.342 15.2734 16.0607C15.5625 15.7794 15.7249 15.3978 15.7249 15V10.2C15.729 8.68948 16.3475 7.24197 17.4453 6.17387C18.5431 5.10576 20.0308 4.50396 21.5833 4.5H24.9749V7.5H23.7416C23.2196 7.42601 22.6876 7.45706 22.1784 7.59123C21.6693 7.7254 21.1938 7.95982 20.7816 8.28C20.5314 8.53485 20.3369 8.83635 20.2097 9.16633C20.0825 9.49631 20.0253 9.84794 20.0416 10.2V15C20.0416 15.3978 20.204 15.7794 20.4931 16.0607C20.7822 16.342 21.1744 16.5 21.5833 16.5H25.4683L24.2349 19.5Z" fill="url(#paint0_linear_111_102)"/>
<defs>
<linearGradient id="paint0_linear_111_102" x1="18.5008" y1="1.5" x2="18.5008" y2="34.5" gradientUnits="userSpaceOnUse">
<stop stop-color="#E05CE0"/>
<stop offset="1" stop-color="#7EADDC"/>
</linearGradient>
</defs>
</svg>
