<svg width="34" height="30" viewBox="0 0 34 30" fill="none" xmlns="http://www.w3.org/2000/svg">
<path d="M33.4869 2.92531C33.4871 2.66036 33.417 2.4001 33.2839 2.17103C33.1507 1.94195 32.9593 1.75226 32.729 1.62126C32.4987 1.49025 32.2378 1.42262 31.9729 1.42526C31.7079 1.42789 31.4484 1.50069 31.2208 1.63624C30.3428 2.15882 29.3976 2.55902 28.4113 2.82574C27.0027 1.61709 25.2063 0.955694 23.3503 0.962454C21.3141 0.964798 19.3586 1.75834 17.8966 3.17553C16.4346 4.59271 15.5805 6.52259 15.5148 8.55767C11.5008 7.91757 7.86277 5.82246 5.2945 2.67188C5.13975 2.48414 4.94212 2.33635 4.71829 2.241C4.49445 2.14565 4.25096 2.10552 4.00837 2.12401C3.76591 2.14397 3.53196 2.2227 3.32675 2.35337C3.12155 2.48405 2.95126 2.66275 2.83063 2.87401C2.21192 3.95373 1.85657 5.16415 1.79345 6.40697C1.73033 7.64979 1.96121 8.88999 2.46734 10.0268L2.46442 10.0298C2.23693 10.1699 2.0492 10.366 1.91917 10.5994C1.78914 10.8328 1.72116 11.0956 1.72174 11.3628C1.71898 11.5832 1.7322 11.8035 1.76129 12.022C1.9145 13.9094 2.75096 15.676 4.11383 16.9907C4.02138 17.1668 3.96495 17.3596 3.94784 17.5578C3.93074 17.756 3.9533 17.9556 4.01422 18.145C4.60839 19.9962 5.87196 21.5591 7.55768 22.5278C5.84504 23.1901 3.99581 23.421 2.17291 23.2002C1.83551 23.1578 1.49375 23.2314 1.20368 23.4089C0.913605 23.5863 0.692446 23.857 0.576478 24.1767C0.460511 24.4964 0.456621 24.8459 0.565447 25.1681C0.674273 25.4902 0.889352 25.7658 1.17541 25.9497C4.31055 27.9689 7.96092 29.0425 11.6901 29.042C15.9189 29.0896 20.045 27.7382 23.4264 25.1982C26.8078 22.6581 29.255 19.0718 30.3873 14.997C30.9169 13.222 31.1873 11.3797 31.1901 9.52735C31.1901 9.4292 31.1901 9.32813 31.1886 9.22706C31.9717 8.38246 32.5784 7.39002 32.9731 6.30791C33.3677 5.2258 33.5424 4.0758 33.4869 2.92531V2.92531ZM28.5269 7.74317C28.2792 8.03619 28.1538 8.41337 28.1768 8.7964C28.1915 9.0439 28.19 9.2929 28.19 9.52735C28.1869 11.0927 27.9575 12.6493 27.5088 14.1489C26.5841 17.616 24.5226 20.6725 21.6545 22.8288C18.7864 24.9852 15.2776 26.1166 11.6901 26.042C10.4014 26.0424 9.11714 25.891 7.86389 25.5908C9.46201 25.0758 10.9563 24.2818 12.2775 23.2456C12.5208 23.054 12.6989 22.7918 12.7873 22.495C12.8757 22.1982 12.8701 21.8812 12.7712 21.5877C12.6724 21.2942 12.4851 21.0385 12.2351 20.8556C11.9852 20.6728 11.6847 20.5718 11.3751 20.5664C10.1283 20.547 8.93776 20.0444 8.05426 19.1646C8.27839 19.1221 8.50105 19.0693 8.72224 19.0064C9.04625 18.9141 9.3298 18.7155 9.52723 18.4426C9.72465 18.1696 9.82446 17.8381 9.81059 17.5015C9.79672 17.1649 9.66998 16.8428 9.45076 16.587C9.23155 16.3312 8.93262 16.1566 8.60212 16.0913C7.87842 15.9484 7.19743 15.6405 6.61209 15.1916C6.02674 14.7427 5.5528 14.1648 5.22712 13.5029C5.49821 13.5399 5.77103 13.5629 6.0445 13.5718C6.36937 13.5767 6.68739 13.4781 6.95256 13.2904C7.21773 13.1026 7.41632 12.8354 7.5196 12.5273C7.61856 12.2165 7.61347 11.8818 7.50509 11.5741C7.39671 11.2664 7.19095 11.0025 6.91901 10.8223C6.25923 10.3827 5.71878 9.7864 5.34604 9.0867C4.97331 8.38701 4.77995 7.60578 4.78327 6.81301C4.78327 6.71341 4.78619 6.61379 4.79206 6.51565C8.15395 9.65103 12.5145 11.4993 17.1056 11.7349C17.3373 11.744 17.5681 11.7004 17.7805 11.6072C17.9929 11.5141 18.1814 11.3739 18.3316 11.1973C18.4804 11.0189 18.5858 10.8085 18.6394 10.5825C18.693 10.3565 18.6934 10.1212 18.6406 9.89504C18.5549 9.53709 18.5111 9.17035 18.5103 8.80226C18.5116 7.51907 19.022 6.28882 19.9294 5.38146C20.8367 4.47411 22.067 3.96376 23.3502 3.96241C24.0104 3.96064 24.6638 4.09576 25.2691 4.35923C25.8745 4.6227 26.4186 5.00881 26.8672 5.49317C27.0402 5.6793 27.258 5.81807 27.4998 5.89628C27.7416 5.97449 27.9993 5.98954 28.2486 5.94001C28.8647 5.82009 29.4721 5.65859 30.0664 5.45662C29.661 6.28608 29.143 7.05554 28.5269 7.74317V7.74317Z" fill="url(#paint0_linear_417_93)"/>
<defs>
<linearGradient id="paint0_linear_417_93" x1="16.9918" y1="0.962402" x2="16.9918" y2="29.0432" gradientUnits="userSpaceOnUse">
<stop stop-color="#BF71BB"/>
<stop offset="1" stop-color="#67A4D8"/>
</linearGradient>
</defs>
</svg>
