<svg width="421" height="574" viewBox="0 0 842 1148" fill="none" xmlns="http://www.w3.org/2000/svg">
<path d="M452.138 748.303C622.68 669.182 634.138 562.207 596.667 306.587C517.292 135.498 479.138 31.8029 308.544 75.2415C83.219 132.616 59.2625 325.714 138.638 496.803C218.013 667.892 241.217 846.157 452.138 748.303Z" fill="#AB4ABA" fill-opacity="0.6"/>
<path d="M689.638 994.303C822.132 863.966 801.363 859.069 761.138 674.803C720.913 490.537 642.958 467.678 486.638 501.803C259.473 551.393 258.413 750.037 298.638 934.303C338.863 1118.57 474.638 1205.8 689.638 994.303Z" fill="#AB4ABA" fill-opacity="0.6"/>
<circle r="172" transform="matrix(-1 0 0 1 200.638 649.803)" fill="#8F409A" fill-opacity="0.7"/>
</svg>
