<svg width="30" height="30" viewBox="0 0 30 30" fill="none" xmlns="http://www.w3.org/2000/svg">
<path d="M15 7.5C13.5166 7.5 12.0666 7.93987 10.8332 8.76398C9.59985 9.58809 8.63856 10.7594 8.0709 12.1299C7.50325 13.5003 7.35472 15.0083 7.64411 16.4632C7.9335 17.918 8.64781 19.2544 9.6967 20.3033C10.7456 21.3522 12.082 22.0665 13.5368 22.3559C14.9917 22.6453 16.4997 22.4968 17.8701 21.9291C19.2406 21.3614 20.4119 20.4001 21.236 19.1668C22.0601 17.9334 22.5 16.4834 22.5 15C22.5 13.0109 21.7098 11.1032 20.3033 9.6967C18.8968 8.29018 16.9891 7.5 15 7.5V7.5ZM15 19.5C14.11 19.5 13.24 19.2361 12.4999 18.7416C11.7599 18.2471 11.1831 17.5443 10.8425 16.7221C10.5019 15.8998 10.4128 14.995 10.5865 14.1221C10.7601 13.2492 11.1887 12.4474 11.818 11.818C12.4474 11.1887 13.2492 10.7601 14.1221 10.5865C14.995 10.4128 15.8998 10.5019 16.7221 10.8425C17.5443 11.1831 18.2471 11.7599 18.7416 12.4999C19.2361 13.24 19.5 14.11 19.5 15C19.5 16.1935 19.0259 17.3381 18.182 18.182C17.3381 19.0259 16.1935 19.5 15 19.5ZM22.5 6C22.2033 6 21.9133 6.08797 21.6666 6.2528C21.42 6.41762 21.2277 6.65189 21.1142 6.92598C21.0006 7.20006 20.9709 7.50166 21.0288 7.79264C21.0867 8.08361 21.2296 8.35088 21.4393 8.56066C21.6491 8.77044 21.9164 8.9133 22.2074 8.97118C22.4983 9.02906 22.7999 8.99935 23.074 8.88582C23.3481 8.77229 23.5824 8.58003 23.7472 8.33336C23.912 8.08668 24 7.79667 24 7.5C24 7.10218 23.842 6.72064 23.5607 6.43934C23.2794 6.15804 22.8978 6 22.5 6ZM29.91 9.36C29.8851 8.07813 29.6416 6.80992 29.19 5.61C28.7712 4.5181 28.1274 3.52649 27.3005 2.69955C26.4735 1.87261 25.4819 1.22882 24.39 0.81C23.1901 0.358349 21.9219 0.114851 20.64 0.0899999C19.185 -8.3819e-08 18.705 0 15 0C11.295 0 10.815 -8.3819e-08 9.36 0.0899999C8.07813 0.114851 6.80992 0.358349 5.61 0.81C4.5181 1.22882 3.52649 1.87261 2.69955 2.69955C1.87261 3.52649 1.22882 4.5181 0.81 5.61C0.358349 6.80992 0.114851 8.07813 0.0899999 9.36C-8.3819e-08 10.83 0 11.31 0 15C0 18.69 -8.3819e-08 19.17 0.0899999 20.64C0.114851 21.9219 0.358349 23.1901 0.81 24.39C1.22882 25.4819 1.87261 26.4735 2.69955 27.3005C3.52649 28.1274 4.5181 28.7712 5.61 29.19C6.80992 29.6416 8.07813 29.8851 9.36 29.91C10.86 29.91 11.295 30 15 30C18.705 30 19.185 30 20.64 29.91C21.9219 29.8851 23.1901 29.6416 24.39 29.19C25.4819 28.7712 26.4735 28.1274 27.3005 27.3005C28.1274 26.4735 28.7712 25.4819 29.19 24.39C29.6416 23.1901 29.8851 21.9219 29.91 20.64C29.91 19.14 30 18.69 30 15C30 11.31 30 10.83 29.91 9.36ZM26.91 20.505C26.8837 21.4569 26.7065 22.3986 26.385 23.295C26.1192 24.0035 25.699 24.644 25.155 25.17C24.6321 25.7143 23.9904 26.1301 23.28 26.385C22.3815 26.7197 21.4335 26.9022 20.475 26.925C19.065 26.925 18.63 27 14.985 27C11.34 27 10.92 27 9.51 27C8.55303 26.9753 7.60613 26.7981 6.705 26.475C5.99649 26.2092 5.35601 25.789 4.83 25.245C4.28573 24.7221 3.86988 24.0804 3.615 23.37C3.28171 22.4763 3.09922 21.5335 3.075 20.58C3.075 19.08 3.075 18.705 3.075 15.075C3.075 11.445 3.075 11.01 3.075 9.57C3.10086 8.61181 3.28326 7.6643 3.615 6.765C3.87384 6.06095 4.2893 5.42493 4.83 4.905C5.35286 4.36073 5.99461 3.94488 6.705 3.69C7.60349 3.35534 8.55149 3.17284 9.51 3.15C10.92 3 11.355 3 15 3C18.645 3 19.08 3 20.49 3C21.4532 3.02449 22.4059 3.20692 23.31 3.54C24.0141 3.79884 24.6501 4.2143 25.17 4.755C25.7143 5.27786 26.1301 5.91961 26.385 6.63C26.7522 7.54284 26.9602 8.51187 27 9.495C27 10.995 27.075 11.37 27.075 15C27.075 18.63 27 19.065 27 20.505H26.91Z" fill="url(#paint0_linear_417_92)"/>
<defs>
<linearGradient id="paint0_linear_417_92" x1="15" y1="0" x2="15" y2="30" gradientUnits="userSpaceOnUse">
<stop stop-color="#C071BB"/>
<stop offset="1" stop-color="#68A4D6"/>
</linearGradient>
</defs>
</svg>
