<svg width="59" height="59" viewBox="0 0 59 59" fill="none" xmlns="http://www.w3.org/2000/svg">
<g opacity="0.7">
<path d="M31.9582 39.3333H17.2082C16.5562 39.3333 15.9309 39.5923 15.4699 40.0534C15.0089 40.5144 14.7499 41.1397 14.7499 41.7917C14.7499 42.4437 15.0089 43.0689 15.4699 43.53C15.9309 43.991 16.5562 44.25 17.2082 44.25H31.9582C32.6102 44.25 33.2355 43.991 33.6965 43.53C34.1575 43.0689 34.4165 42.4437 34.4165 41.7917C34.4165 41.1397 34.1575 40.5144 33.6965 40.0534C33.2355 39.5923 32.6102 39.3333 31.9582 39.3333ZM22.1249 24.5833H27.0415C27.6935 24.5833 28.3188 24.3243 28.7798 23.8633C29.2409 23.4023 29.4999 22.777 29.4999 22.125C29.4999 21.473 29.2409 20.8477 28.7798 20.3867C28.3188 19.9257 27.6935 19.6667 27.0415 19.6667H22.1249C21.4729 19.6667 20.8476 19.9257 20.3866 20.3867C19.9255 20.8477 19.6665 21.473 19.6665 22.125C19.6665 22.777 19.9255 23.4023 20.3866 23.8633C20.8476 24.3243 21.4729 24.5833 22.1249 24.5833ZM51.6249 29.5H44.2499V7.375C44.2516 6.94181 44.1388 6.51587 43.923 6.14029C43.7071 5.76471 43.3958 5.45284 43.0207 5.23625C42.647 5.02048 42.223 4.90689 41.7915 4.90689C41.36 4.90689 40.9361 5.02048 40.5624 5.23625L33.1874 9.46458L25.8124 5.23625C25.4386 5.02048 25.0147 4.90689 24.5832 4.90689C24.1517 4.90689 23.7277 5.02048 23.354 5.23625L15.979 9.46458L8.60402 5.23625C8.23031 5.02048 7.80638 4.90689 7.37486 4.90689C6.94333 4.90689 6.5194 5.02048 6.14569 5.23625C5.77054 5.45284 5.45928 5.76471 5.24343 6.14029C5.02758 6.51587 4.9148 6.94181 4.91652 7.375V46.7083C4.91652 48.6643 5.69353 50.5402 7.07661 51.9232C8.45969 53.3063 10.3356 54.0833 12.2915 54.0833H46.7082C48.6642 54.0833 50.54 53.3063 51.9231 51.9232C53.3062 50.5402 54.0832 48.6643 54.0832 46.7083V31.9583C54.0832 31.3063 53.8242 30.6811 53.3632 30.22C52.9021 29.759 52.2768 29.5 51.6249 29.5ZM12.2915 49.1667C11.6395 49.1667 11.0142 48.9077 10.5532 48.4466C10.0922 47.9856 9.83319 47.3603 9.83319 46.7083V11.6279L14.7499 14.4304C15.1293 14.6286 15.551 14.7321 15.979 14.7321C16.4071 14.7321 16.8288 14.6286 17.2082 14.4304L24.5832 10.2021L31.9582 14.4304C32.3376 14.6286 32.7593 14.7321 33.1874 14.7321C33.6154 14.7321 34.0371 14.6286 34.4165 14.4304L39.3332 11.6279V46.7083C39.3398 47.547 39.4895 48.3783 39.7757 49.1667H12.2915ZM49.1665 46.7083C49.1665 47.3603 48.9075 47.9856 48.4465 48.4466C47.9855 48.9077 47.3602 49.1667 46.7082 49.1667C46.0562 49.1667 45.4309 48.9077 44.9699 48.4466C44.5089 47.9856 44.2499 47.3603 44.2499 46.7083V34.4167H49.1665V46.7083ZM31.9582 29.5H17.2082C16.5562 29.5 15.9309 29.759 15.4699 30.22C15.0089 30.6811 14.7499 31.3063 14.7499 31.9583C14.7499 32.6103 15.0089 33.2356 15.4699 33.6966C15.9309 34.1577 16.5562 34.4167 17.2082 34.4167H31.9582C32.6102 34.4167 33.2355 34.1577 33.6965 33.6966C34.1575 33.2356 34.4165 32.6103 34.4165 31.9583C34.4165 31.3063 34.1575 30.6811 33.6965 30.22C33.2355 29.759 32.6102 29.5 31.9582 29.5Z" fill="#FFF7F7"/>
</g>
</svg>
