<svg width="62" height="62" viewBox="0 0 62 62" fill="none" xmlns="http://www.w3.org/2000/svg">
<g opacity="0.7">
<path fill-rule="evenodd" clip-rule="evenodd" d="M29.673 12.3171C19.9485 12.9979 12.271 21.1024 12.271 31C12.271 41.3438 20.6563 49.7292 31.0002 49.7292C39.2872 49.7292 46.3185 44.346 48.786 36.8866C46.887 37.6711 44.8058 38.1042 42.6252 38.1042C33.7081 38.1042 26.4793 30.8754 26.4793 21.9583C26.4793 18.3439 27.668 15.0068 29.673 12.3171ZM8.396 31C8.396 18.5161 18.5162 8.39584 31.0002 8.39584C32.1617 8.39584 33.3039 8.48362 34.4204 8.65319C35.1927 8.7705 35.819 9.34014 36.0088 10.0979C36.1987 10.8557 35.9149 11.6533 35.2891 12.1209C32.2898 14.3617 30.3543 17.9337 30.3543 21.9583C30.3543 28.7353 35.8482 34.2292 42.6252 34.2292C45.5553 34.2292 48.2408 33.2046 50.3507 31.4925C50.957 31.0005 51.7994 30.9205 52.4874 31.2896C53.1755 31.6587 53.5748 32.4047 53.5002 33.1819C52.4013 44.6431 42.7484 53.6042 31.0002 53.6042C18.5162 53.6042 8.396 43.4839 8.396 31Z" fill="white"/>
</g>
</svg>
