<svg width="65" height="65" viewBox="0 0 65 65" fill="none" xmlns="http://www.w3.org/2000/svg">
<g opacity="0.7">
<path fill-rule="evenodd" clip-rule="evenodd" d="M20.9894 20.3125C20.9894 13.9555 26.1428 8.80206 32.4998 8.80206C38.8569 8.80206 44.0103 13.9555 44.0103 20.3125C44.0103 26.6695 38.8569 31.8229 32.4998 31.8229C26.1428 31.8229 20.9894 26.6695 20.9894 20.3125ZM32.4998 12.8646C28.3865 12.8646 25.0519 16.1991 25.0519 20.3125C25.0519 24.4258 28.3865 27.7604 32.4998 27.7604C36.6132 27.7604 39.9478 24.4258 39.9478 20.3125C39.9478 16.1991 36.6132 12.8646 32.4998 12.8646Z" fill="white"/>
<path fill-rule="evenodd" clip-rule="evenodd" d="M21.6665 39.9479C18.301 39.9479 15.5728 42.6762 15.5728 46.0416V49.2599C15.5728 49.3089 15.6083 49.3507 15.6566 49.3586C26.8116 51.1798 38.1881 51.1798 49.3431 49.3586C49.3914 49.3507 49.4269 49.3089 49.4269 49.2599V46.0416C49.4269 42.6762 46.6987 39.9479 43.3332 39.9479H42.41C42.3386 39.9479 42.2677 39.9592 42.1998 39.9813L39.8557 40.7468C35.076 42.3075 29.9237 42.3075 25.144 40.7468L22.7999 39.9813C22.732 39.9592 22.6611 39.9479 22.5897 39.9479H21.6665ZM11.5103 46.0416C11.5103 40.4325 16.0574 35.8854 21.6665 35.8854H22.5897C23.0894 35.8854 23.5859 35.9644 24.0609 36.1195L26.405 36.8849C30.3653 38.1781 34.6344 38.1781 38.5947 36.8849L40.9388 36.1195C41.4138 35.9644 41.9103 35.8854 42.41 35.8854H43.3332C48.9423 35.8854 53.4894 40.4325 53.4894 46.0416V49.2599C53.4894 51.2999 52.011 53.0393 49.9977 53.368C38.4092 55.26 26.5905 55.26 15.002 53.368C12.9887 53.0393 11.5103 51.2999 11.5103 49.2599V46.0416Z" fill="white"/>
</g>
</svg>
