<svg width="56" height="57" viewBox="0 0 56 57" fill="none" xmlns="http://www.w3.org/2000/svg">
<g opacity="0.7">
<path fill-rule="evenodd" clip-rule="evenodd" d="M28 4.35661L22.1163 10.5529C21.4901 11.2125 20.6276 11.5849 19.7264 11.5849H11.3817V20.0787C11.3817 20.9959 11.0158 21.8738 10.3678 22.5112L4.28017 28.5L10.3678 34.4888C11.0158 35.1262 11.3817 36.0041 11.3817 36.9213V45.4151H19.7264C20.6276 45.4151 21.4901 45.7875 22.1163 46.4471L28 52.6434L33.8837 46.4471C34.5099 45.7875 35.3724 45.4151 36.2736 45.4151H44.6183V36.9213C44.6183 36.0041 44.9842 35.1262 45.6322 34.4887L51.7198 28.5L45.6322 22.5113C44.9842 21.8738 44.6183 20.9959 44.6183 20.0787V11.5849H36.2736C35.3724 11.5849 34.5099 11.2125 33.8837 10.5529L28 4.35661ZM25.6101 1.03196C26.9166 -0.343987 29.0834 -0.343985 30.3899 1.03196L36.5556 7.52528H45.2831C47.1187 7.52528 48.6067 9.03991 48.6067 10.9083V19.7917L54.9861 26.0674C56.338 27.3973 56.338 29.6027 54.9861 30.9326L48.6067 37.2083V46.0917C48.6067 47.9601 47.1187 49.4747 45.2831 49.4747H36.5556L30.3899 55.968C29.0834 57.344 26.9166 57.344 25.6101 55.968L19.4444 49.4747H10.7169C8.88131 49.4747 7.39326 47.9601 7.39326 46.0917V37.2084L1.01385 30.9326C-0.337949 29.6027 -0.337952 27.3973 1.01385 26.0674L7.39326 19.7917V10.9083C7.39326 9.03991 8.88132 7.52528 10.7169 7.52528H19.4444L25.6101 1.03196Z" fill="white"/>
<path fill-rule="evenodd" clip-rule="evenodd" d="M15.3701 28.5C15.3701 21.4001 21.0247 15.6445 28 15.6445C34.9753 15.6445 40.6299 21.4001 40.6299 28.5C40.6299 35.5999 34.9753 41.3555 28 41.3555C21.0247 41.3555 15.3701 35.5999 15.3701 28.5ZM28 19.7042C23.2274 19.7042 19.3585 23.6422 19.3585 28.5C19.3585 33.3578 23.2274 37.2959 28 37.2959C32.7726 37.2959 36.6415 33.3578 36.6415 28.5C36.6415 23.6422 32.7726 19.7042 28 19.7042Z" fill="white"/>
</g>
</svg>
