<svg width="43" height="37" viewBox="0 0 43 37" fill="none" xmlns="http://www.w3.org/2000/svg">
<path opacity="0.7" fill-rule="evenodd" clip-rule="evenodd" d="M25.5108 4.26267C23.2694 2.58817 19.7306 2.58817 17.4892 4.26267L5.57769 13.1614C5.28584 13.3795 5.08953 13.6635 5.01658 13.9732C3.58989 20.0306 3.48457 26.2319 4.70507 32.3165L4.99477 33.7608H12.6581V21.31C12.6581 20.4797 13.5226 19.8066 14.5891 19.8066H28.4109C29.4774 19.8066 30.3419 20.4797 30.3419 21.31V33.7608H38.0052L38.2949 32.3165C39.5154 26.2319 39.4101 20.0306 37.9834 13.9732C37.9105 13.6635 37.7142 13.3795 37.4223 13.1614L25.5108 4.26267ZM14.8153 2.09313C18.5509 -0.697709 24.4491 -0.697709 28.1847 2.09313L40.0962 10.9919C40.9731 11.647 41.5629 12.5003 41.7821 13.4309C43.287 19.8206 43.3981 26.362 42.1107 32.7805L41.6453 35.1007C41.4528 36.0602 40.3913 36.7676 39.1439 36.7676H28.4109C27.3444 36.7676 26.4799 36.0945 26.4799 35.2642V22.8134H16.5201V35.2642C16.5201 36.0945 15.6556 36.7676 14.5891 36.7676H3.85608C2.6087 36.7676 1.54721 36.0602 1.35474 35.1007L0.889344 32.7805C-0.398106 26.362 -0.287016 19.8206 1.21794 13.4309C1.43713 12.5003 2.02694 11.647 2.90379 10.9919L14.8153 2.09313Z" fill="white"/>
</svg>
