<svg width="63" height="63" viewBox="0 0 63 63" fill="none" xmlns="http://www.w3.org/2000/svg">
<g opacity="0.7">
<path d="M56.9889 53.2612L47.2502 43.6012C51.0304 38.8878 52.8611 32.9052 52.3658 26.8834C51.8705 20.8617 49.0868 15.2585 44.5872 11.2262C40.0875 7.19382 34.2139 5.03871 28.1741 5.20398C22.1343 5.36925 16.3873 7.84234 12.1149 12.1147C7.84253 16.3871 5.36943 22.1341 5.20416 28.1739C5.03889 34.2137 7.194 40.0873 11.2264 44.587C15.2587 49.0866 20.8618 51.8703 26.8836 52.3656C32.9053 52.8609 38.888 51.0303 43.6014 47.25L53.2614 56.91C53.5055 57.156 53.7958 57.3513 54.1157 57.4846C54.4355 57.6179 54.7786 57.6865 55.1252 57.6865C55.4717 57.6865 55.8148 57.6179 56.1347 57.4846C56.4546 57.3513 56.7449 57.156 56.9889 56.91C57.4621 56.4205 57.7265 55.7664 57.7265 55.0856C57.7265 54.4049 57.4621 53.7507 56.9889 53.2612ZM28.8752 47.25C25.2409 47.25 21.6883 46.1723 18.6666 44.1532C15.6448 42.1342 13.2896 39.2644 11.8989 35.9068C10.5081 32.5492 10.1442 28.8546 10.8532 25.2902C11.5622 21.7258 13.3123 18.4517 15.8821 15.8819C18.4519 13.3121 21.726 11.5621 25.2904 10.8531C28.8548 10.1441 32.5494 10.5079 35.907 11.8987C39.2646 13.2895 42.1344 15.6446 44.1534 18.6664C46.1725 21.6881 47.2502 25.2408 47.2502 28.875C47.2502 33.7483 45.3142 38.4221 41.8683 41.8681C38.4223 45.3141 33.7485 47.25 28.8752 47.25Z" fill="white"/>
</g>
</svg>
