<svg id="Camada_6" data-name="Camada 6" xmlns="http://www.w3.org/2000/svg" xmlns:xlink="http://www.w3.org/1999/xlink" viewBox="0 0 558.67 803.67"><defs><style>.cls-1{font-size:112.16px;font-family:Poppins-Medium, Poppins;font-weight:500;}.cls-1,.cls-2{fill:#fff;}.cls-2{font-size:68.59px;font-family:MyriadPro-Regular, Myriad Pro;letter-spacing:0.3em;}.cls-3{letter-spacing:0.29em;}.cls-4{letter-spacing:0.29em;}.cls-5{letter-spacing:0.3em;}.cls-10,.cls-11,.cls-12,.cls-13,.cls-14,.cls-16,.cls-17,.cls-18,.cls-19,.cls-20,.cls-6,.cls-7,.cls-8,.cls-9{fill:none;stroke-linecap:round;stroke-width:11px;}.cls-10,.cls-11,.cls-12,.cls-13,.cls-14,.cls-15,.cls-16,.cls-17,.cls-18,.cls-19,.cls-20,.cls-6,.cls-7,.cls-8,.cls-9{stroke-miterlimit:10;}.cls-6{stroke:url(#Gradiente_sem_nome_160);}.cls-7{stroke:url(#Gradiente_sem_nome_166);}.cls-8{stroke:url(#Gradiente_sem_nome_168);}.cls-9{stroke:url(#Gradiente_sem_nome_162);}.cls-10{stroke:url(#Gradiente_sem_nome_161);}.cls-11{stroke:url(#Gradiente_sem_nome_163);}.cls-12{stroke:url(#Gradiente_sem_nome_163-2);}.cls-13{stroke:url(#Gradiente_sem_nome_163-3);}.cls-14{stroke:url(#Gradiente_sem_nome_168-2);}.cls-15{fill:url(#Gradiente_sem_nome_160-2);stroke:url(#Gradiente_sem_nome_163-4);}.cls-16{stroke:url(#Gradiente_sem_nome_163-5);}.cls-17{stroke:url(#Gradiente_sem_nome_163-6);}.cls-18{stroke:url(#Gradiente_sem_nome_164);}.cls-19{stroke:url(#Gradiente_sem_nome_164-2);}.cls-20{stroke:url(#Gradiente_sem_nome_164-3);}.cls-21{fill:url(#Gradiente_sem_nome_160-3);}</style><linearGradient id="Gradiente_sem_nome_160" y1="279.33" x2="558.67" y2="279.33" gradientUnits="userSpaceOnUse"><stop offset="0" stop-color="#ff00cf"/><stop offset="1" stop-color="#25aeb7"/></linearGradient><linearGradient id="Gradiente_sem_nome_166" x1="698.73" y1="309.2" x2="751.95" y2="309.2" gradientUnits="userSpaceOnUse"><stop offset="0" stop-color="#ff00cf"/><stop offset="0.61" stop-color="#25aeb7"/></linearGradient><linearGradient id="Gradiente_sem_nome_168" x1="255.7" y1="364.85" x2="270.98" y2="380.14" gradientUnits="userSpaceOnUse"><stop offset="0" stop-color="#ff00cf"/><stop offset="0.58" stop-color="#25aeb7"/></linearGradient><linearGradient id="Gradiente_sem_nome_162" x1="326.62" y1="234.07" x2="421.43" y2="328.88" gradientUnits="userSpaceOnUse"><stop offset="0" stop-color="#ff00cf"/><stop offset="0.54" stop-color="#25aeb7"/></linearGradient><linearGradient id="Gradiente_sem_nome_161" x1="314.78" y1="256.78" x2="364.17" y2="306.17" gradientUnits="userSpaceOnUse"><stop offset="0" stop-color="#ff00cf"/><stop offset="0.55" stop-color="#25aeb7"/></linearGradient><linearGradient id="Gradiente_sem_nome_163" x1="389.16" y1="265.58" x2="430.55" y2="306.97" gradientUnits="userSpaceOnUse"><stop offset="0" stop-color="#ff00cf"/><stop offset="0.56" stop-color="#25aeb7"/></linearGradient><linearGradient id="Gradiente_sem_nome_163-2" x1="407.71" y1="250.87" x2="478.53" y2="321.68" xlink:href="#Gradiente_sem_nome_163"/><linearGradient id="Gradiente_sem_nome_163-3" x1="466.57" y1="276.46" x2="486.21" y2="296.09" xlink:href="#Gradiente_sem_nome_163"/><linearGradient id="Gradiente_sem_nome_168-2" x1="298.09" y1="200.95" x2="314.32" y2="217.18" xlink:href="#Gradiente_sem_nome_168"/><linearGradient id="Gradiente_sem_nome_160-2" x1="502.62" y1="286.57" x2="516.7" y2="286.57" xlink:href="#Gradiente_sem_nome_160"/><linearGradient id="Gradiente_sem_nome_163-4" x1="502.12" y1="286.57" x2="517.2" y2="286.57" xlink:href="#Gradiente_sem_nome_163"/><linearGradient id="Gradiente_sem_nome_163-5" x1="138.06" y1="239.19" x2="232.87" y2="334" xlink:href="#Gradiente_sem_nome_163"/><linearGradient id="Gradiente_sem_nome_163-6" x1="195.32" y1="261.9" x2="244.71" y2="311.29" xlink:href="#Gradiente_sem_nome_163"/><linearGradient id="Gradiente_sem_nome_164" x1="128.94" y1="270.7" x2="170.33" y2="312.09" xlink:href="#Gradiente_sem_nome_162"/><linearGradient id="Gradiente_sem_nome_164-2" x1="80.96" y1="255.98" x2="151.78" y2="326.8" xlink:href="#Gradiente_sem_nome_162"/><linearGradient id="Gradiente_sem_nome_164-3" x1="73.28" y1="281.58" x2="92.92" y2="301.21" xlink:href="#Gradiente_sem_nome_162"/><linearGradient id="Gradiente_sem_nome_160-3" x1="42.79" y1="291.69" x2="56.87" y2="291.69" xlink:href="#Gradiente_sem_nome_160"/></defs><text class="cls-1" transform="translate(29.77 703.97)"><tspan xml:space="preserve">S  O  N  G</tspan></text><text class="cls-2" transform="translate(174.64 786.52)">w<tspan class="cls-3" x="70.78" y="0">a</tspan><tspan class="cls-4" x="123.87" y="0">v</tspan><tspan class="cls-5" x="176.75" y="0">e</tspan></text><circle class="cls-6" cx="279.33" cy="279.33" r="273.83"/><path class="cls-7" d="M704.23,421.08a16.54,16.54,0,0,0,16.53,16.54h9.15a16.54,16.54,0,0,0,16.54-16.54V351.37L704.23,261.2V197a16.22,16.22,0,0,1,16.23-16.23h9.76A16.23,16.23,0,0,1,746.45,197" transform="translate(-440.89 -18.33)"/><line class="cls-8" x1="263.34" y1="364.99" x2="263.34" y2="380"/><line class="cls-9" x1="374.02" y1="194.44" x2="374.02" y2="368.51"/><line class="cls-10" x1="339.47" y1="239.87" x2="339.47" y2="323.08"/><line class="cls-11" x1="409.85" y1="252.66" x2="409.85" y2="319.88"/><line class="cls-12" x1="443.12" y1="223.23" x2="443.12" y2="349.31"/><line class="cls-13" x1="476.39" y1="274.42" x2="476.39" y2="298.13"/><line class="cls-14" x1="306.2" y1="200.61" x2="306.2" y2="217.52"/><circle class="cls-15" cx="509.66" cy="286.57" r="7.04"/><line class="cls-16" x1="185.47" y1="199.56" x2="185.47" y2="373.63"/><line class="cls-17" x1="220.01" y1="244.99" x2="220.01" y2="328.2"/><line class="cls-18" x1="149.64" y1="257.78" x2="149.64" y2="325"/><line class="cls-19" x1="116.37" y1="228.35" x2="116.37" y2="354.43"/><line class="cls-20" x1="83.1" y1="279.54" x2="83.1" y2="303.25"/><circle class="cls-21" cx="49.83" cy="291.69" r="7.04"/></svg>